<svg width="49" height="48" fill="none" xmlns="http://www.w3.org/2000/svg"><path id="Vector" d="M24.667 0a24 24 0 1 0 24 24 24.026 24.026 0 0 0-24-24Zm0 44.308A20.307 20.307 0 1 1 44.974 24a20.33 20.33 0 0 1-20.307 20.308ZM13.59 19.385a2.77 2.77 0 1 1 5.54 0 2.77 2.77 0 0 1-5.54 0Zm22.154 0a2.77 2.77 0 1 1-5.539 0 2.77 2.77 0 0 1 5.539 0Zm-.247 11.076c-2.375 4.106-6.323 6.462-10.83 6.462s-8.453-2.354-10.828-6.462a1.845 1.845 0 1 1 3.194-1.846c1.724 2.98 4.433 4.616 7.634 4.616 3.2 0 5.91-1.639 7.631-4.616a1.846 1.846 0 1 1 3.199 1.847Z" fill="#fff"/></svg>