<svg width="48" height="48" fill="none" xmlns="http://www.w3.org/2000/svg"><path d="M24 0a24 24 0 1 0 24 24A24.025 24.025 0 0 0 24 0Zm0 44.308A20.307 20.307 0 1 1 44.308 24 20.33 20.33 0 0 1 24 44.308Zm9.23-15.693a6.462 6.462 0 0 1-6.46 6.462h-.924v1.846a1.846 1.846 0 1 1-3.692 0v-1.846h-3.692a1.846 1.846 0 0 1 0-3.692h8.307a2.77 2.77 0 1 0 0-5.539h-5.538a6.461 6.461 0 1 1 0-12.923h.923v-1.846a1.846 1.846 0 0 1 3.692 0v1.846h3.692a1.846 1.846 0 0 1 0 3.692h-8.307a2.77 2.77 0 1 0 0 5.539h5.538a6.461 6.461 0 0 1 6.462 6.461Z" fill="#fff"/></svg>